# xmcd
# 
# Track frame offsets:
#     150
#     11303
#     30316
#     51133
#     64457
#     79578
#     100763
# 
# Disc length: 1582
# 
# Revision: 0
# Processed by: cddbd v1.5.2PL0 Copyright (c) Steve Scherf et al.
# Submitted via: BonkEnc v1.0.8
# 
DISCID=48062c07
DTITLE=FULLARMOR - CATARACT
DYEAR=2008
DGENRE=
TTITLE0=ELEPHANT KING feat.タブゾンビ
TTITLE1=Good Morning Charlie
TTITLE2=ナイアガラ
TTITLE3=GERMAN BREAD
TTITLE4=華厳-kegon-
TTITLE5=CATARACT
TTITLE6=SOUP and SANDWICH(strobe)
EXTD=
EXTT0=
EXTT1=
EXTT2=
EXTT3=
EXTT4=
EXTT5=
EXTT6=
PLAYORDER=
